<svg width="256" height="296" viewBox="0 0 256 296" xmlns="http://www.w3.org/2000/svg" role="img" aria-labelledby="openjs-title">
  <title id="openjs-title">OpenJS Foundation</title>
  <defs>
    <linearGradient x1="20.3935593%" y1="15.8494593%" x2="79.5710016%" y2="84.1511768%" id="openjs-gradient">
      <stop stop-color="#0075C9" offset="21.45%" />
      <stop stop-color="#80BC00" offset="70.67%" />
      <stop stop-color="#FDE021" offset="100%" />
    </linearGradient>
  </defs>
  <path
    fill="url(#openjs-gradient)"
    d="M255.060206 73.3979442 128.751836.46989721 127.906021 0l-.845815.46989721L1.50367107 73.0220264.845814978 73.3979442 0 73.8678414V221.603524l.845814978.469897 126.308370022 72.928047.845815.469898.845815-.469898 124.61674-71.894273 1.69163-.939794.845815-.469897V73.8678414l-.939794-.4698972ZM115.312775 18.8898678 84.3935389 72.3641703H22.6490455l92.6637295-53.4743025ZM79.318649 81.1982379l-14.472834 25.0925111-43.4185022-25.0925111H79.318649Zm-11.277533 37.0279001 51.030837 29.509545-51.030837 29.509545-17.010279-29.509545 17.010279-29.509545Zm-7.5183554-4.323054-14.472834 25.092511-29.0396476-50.1850223 43.5124816 25.0925113ZM10.0558003 94.2613803l30.9192364 53.4743027-30.9192364 53.474302V94.2613803Zm35.9001468 62.3083697 14.4728341 25.092511L17.010279 206.754772l28.9456681-50.185022ZM64.845815 189.180617l14.472834 25.092511H21.4273128L64.845815 189.180617Zm-42.1967695 33.926578h61.7444934l30.9192361 53.474303-92.6637295-53.474303Zm100.9339205 50.185022-28.9456679-50.185022h28.9456679v50.185022Zm0-59.019089H89.4684288l-17.010279-29.509545 51.0308372-29.509545v59.01909h.093979Zm0-74.14978-51.0308368-29.509545 17.010279-29.5095446h34.0205578v59.0190896Zm0-67.7591777H94.6372981l28.9456679-50.185022v50.185022Zm71.800294 41.5389137 43.418502-25.0925113-28.945668 50.1850223-14.472834-25.092511Zm9.397944 33.832599-17.010279 29.509545-51.030837-29.509545 51.030837-29.509545 17.010279 29.509545Zm-13.814978-41.444934-14.472834-25.0925111h57.891336l-43.418502 25.0925111Zm42.19677-33.9265187h-61.744494l-30.825257-53.4743025 92.569751 53.4743025ZM132.323054 22.1791483l28.945668 50.185022h-28.945668v-50.185022Zm0 59.0190896h34.020558l17.010279 29.5095451-51.030837 29.509544V81.1982379Zm0 74.1497801 51.030837 29.509544-17.010279 29.415566h-34.020558v-58.92511Zm0 67.759177h28.945668l-28.945668 50.185022v-50.185022Zm8.270191 53.474303 30.825257-53.474303h61.744494l-92.569751 53.474303Zm35.900147-62.30837 14.472834-25.092511 43.418502 25.092511h-57.891336Zm18.889868-32.704846 14.472834-25.092511 28.945668 50.185022-43.418502-25.092511Zm50.46696 19.641703-30.919236-53.474302 30.919236-53.4743027V201.209985Z"
  />
</svg>
